<?xml version="1.0" standalone="no"?>
<!DOCTYPE svg PUBLIC "-//W3C//DTD SVG 20010904//EN"
 "http://www.w3.org/TR/2001/REC-SVG-20010904/DTD/svg10.dtd">
<svg version="1.0" xmlns="http://www.w3.org/2000/svg"
 width="962.000000pt" height="962.000000pt" viewBox="0 0 962.000000 962.000000"
 preserveAspectRatio="xMidYMid meet">
<metadata>
Created by potrace 1.11, written by Peter Selinger 2001-2013
</metadata>
<g transform="translate(0.000000,962.000000) scale(0.100000,-0.100000)"
fill="#000000" stroke="none">
<path d="M4347 8897 l-578 -581 893 -893 893 -893 -338 -338 -338 -338 471
-465 c259 -255 473 -466 476 -469 3 -2 155 146 339 330 184 184 338 331 342
327 4 -4 200 -200 435 -435 l428 -427 -1199 -1200 -1200 -1200 474 -473 473
-472 1776 1776 c977 977 1776 1779 1776 1782 0 4 -1023 1029 -2272 2278
l-2273 2271 -578 -580z"/>
<path d="M1903 6451 l-1780 -1779 2271 -2271 c1249 -1249 2274 -2271 2278
-2271 3 0 266 260 583 577 l576 576 -893 894 -893 893 338 338 338 338 -471
464 c-259 256 -473 467 -476 470 -3 2 -155 -146 -339 -330 l-335 -335 -435
435 -435 435 1195 1195 c657 657 1195 1199 1195 1204 0 4 -211 219 -469 477
l-469 469 -1779 -1779z"/>
</g>
</svg>
